<svg xmlns="http://www.w3.org/2000/svg" width="45" height="45" viewBox="0 0 45 45">
  <path fill="#FFDE00" d="M44.5506287,12.9031486 C44.5506287,12.9031486 45.0008798,16.585006 44.9999987,20.2668634 L44.9999987,23.7184377 C44.9999987,27.4002951 44.5506287,31.0821525 44.5506287,31.0821525 C44.5506287,31.0821525 44.1100699,34.2174772 42.7628411,35.5978397 C41.0512701,37.4102614 39.1348392,37.4191698 38.2537216,37.5251803 C31.956374,37.9857465 22.5006602,38 22.5006602,38 C22.5006602,38 10.8007398,37.8922079 7.20049322,37.5429971 C6.19910304,37.3532474 3.95049086,37.4102614 2.23847932,35.5982851 C0.891250476,34.2174772 0.450691664,31.0821525 0.450691664,31.0821525 C0.450691664,31.0821525 -2.84217094e-14,27.4002951 -2.84217094e-14,23.7184377 L-2.84217094e-14,20.2668634 C-2.84217094e-14,16.585006 0.450691664,12.9031486 0.450691664,12.9031486 C0.450691664,12.9031486 0.891250476,9.76782384 2.23847932,8.38746137 C3.95049086,6.57503967 5.86956505,6.56568581 6.74759876,6.46012082 C13.0449464,6 22.4909679,6 22.4909679,6 L22.5103525,6 C22.5103525,6 31.956374,6 38.2537216,6.46012082 C39.1317553,6.56568581 41.0517106,6.57503967 42.7628411,8.38746137 C44.1100699,9.76782384 44.5506287,12.9031486 44.5506287,12.9031486 Z M17.8527647,27.9013947 L30.0121879,21.5318616 L17.8527647,15.1177863 L17.8527647,27.9013947 Z"/>
</svg>
