<svg xmlns="http://www.w3.org/2000/svg" width="45" height="45" viewBox="0 0 45 45">
  <path fill="#FFDE00" fill-rule="evenodd" d="M22.5,0 C34.9266804,0 45,10.0735882 45,22.4997313 C45,34.9272178 34.9266804,45 22.5,45 C10.0738569,45 0,34.9272178 0,22.4997313 C0,10.0735882 10.0738569,0 22.5,0 Z M35.0736842,20.4615789 C36.0507895,21.0431579 37.3168421,20.7202632 37.8978947,19.7407895 C38.4784211,18.7628947 38.1571053,17.4978947 37.1776316,16.9163158 C28.9997368,12.0618421 16.0589474,11.6055263 8.27447368,13.9684211 C7.18473684,14.2994737 6.57052632,15.4502632 6.90052632,16.54 C7.23052632,17.6289474 8.38210526,18.2436842 9.47131579,17.9131579 C16.2526316,15.855 27.97,16.2428947 35.0736842,20.4615789 Z M34.8410526,26.71 C35.3376316,25.9031579 35.0834211,24.8452632 34.2757895,24.3478947 C27.4736842,20.1676316 17.5234211,18.9913158 9.51947368,21.4202632 C8.61236842,21.6965789 8.1,22.6544737 8.37368421,23.5628947 C8.64973684,24.47 9.60921053,24.9821053 10.5178947,24.7076316 C17.5244737,22.5807895 26.5552632,23.6355263 32.4776316,27.2757895 C33.2852632,27.7723684 34.3426316,27.5186842 34.8410526,26.71 Z M32.1444737,32.7107895 C32.5402632,32.0634211 32.3363158,31.2173684 31.6886842,30.8218421 C25.88,27.2723684 18.6792105,26.4465789 10.2844737,28.3655263 C9.54368421,28.5342105 9.08210526,29.2710526 9.25131579,30.01 C9.42,30.7492105 10.1568421,31.2123684 10.8960526,31.0428947 C18.5671053,29.2907895 25.0807895,30.005 30.2557895,33.1678947 C30.9028947,33.5636842 31.7484211,33.3602632 32.1444737,32.7107895 Z"/>
</svg>
