<svg xmlns="http://www.w3.org/2000/svg" width="30" height="30" viewBox="0 0 30 30">
  <path fill="#FFDE00" fill-rule="evenodd" d="M0,11.5 C0,11.5 2.09302326,12.4434783 2.09302326,12.4434783 C2.66805959,7.63162576 5.50610919,3.40974227 13.255814,0 C15.5821682,3.13476563 24.7502385,1.20064326 27.9069767,12.4434783 C27.9069767,12.4434783 30,11.5 30,11.5 C30,14.5 28.6,20.4 28,21.6 C27.4,22.8 16.2,30 15,30 C13.8,30 2.6,22.8 2,21.6 C1.4,20.4 0,14.5 0,11.5 Z M15.0124546,14.6677927 C12.9862825,14.6677927 6.5,13.5 4,14 C4,17 4.37505079,18.9095128 7.11038321,20.7273929 C8.02216068,21.3333529 14.5059116,20.7273929 15.0124546,20.7273929 C15.5189977,20.7273929 22.053133,21.3407589 22.914526,20.7273929 C25.0420068,19.2124928 26,17 26,14 C23.5,13.5 17.0386268,14.6677927 15.0124546,14.6677927 Z M7,16.5 C9.5,15.5 11,15.5 11,15.5 C11,15.5 12.5,15.5 13.5,17.5 C12.5,19 11.5,19.5 11,19.5 C10.5,19.5 8.5,19 7,16.5 Z M11,16.2999992 C11.32,16.5999992 11.32,18.4999992 11,18.7999992 C9.72,18.1999992 9.72,16.8999992 11,16.2999992 Z M23,16.5 C21.5,19 19.5,19.5 19,19.5 C18.5,19.5 17.5,19 16.5,17.5 C17.5,15.5 19,15.5 19,15.5 C19,15.5 20.5,15.5 23,16.5 Z M19,16.2999992 C18.68,16.5999992 18.68,18.4999992 19,18.7999992 C20.28,18.1999992 20.28,16.8999992 19,16.2999992 Z"/>
</svg>
