<svg xmlns="http://www.w3.org/2000/svg" width="45" height="45" viewBox="0 0 45 45">
  <path fill="#FFDE00" fill-rule="evenodd" d="M39.0585389,20.6185439 L39.0585389,20.6194433 C42.3405574,20.6194433 45,23.3202141 45,26.652334 C45,29.984454 42.3405574,32.6843255 39.0585389,32.6843255 L24.1149186,32.6843255 C23.0919869,32.6843255 22.9327442,31.5250535 22.9327442,31.5250535 L22.9327442,13.9156317 C22.9327442,13.9156317 24.2066856,12 28.0258107,12 C33.1035827,12 37.2987724,15.7737045 38.0706945,20.7084797 C38.3927786,20.6536188 38.7211604,20.6185439 39.0585389,20.6185439 Z M0.848394578,22.7509208 C1.16058219,22.7509208 1.41429086,23.0764882 1.41429086,23.4776017 C1.41429086,23.4776017 1.69678916,26.1558887 1.69678916,27.6092505 C1.69678916,28.3368308 1.41429086,29.6930621 1.41429086,29.6930621 C1.41429086,30.0950749 1.16058219,30.4206424 0.848394578,30.4206424 C0.536206965,30.4206424 0.282498301,30.0950749 0.282498301,29.6930621 C0.282498301,29.6930621 0,28.3368308 0,27.6092505 C0,26.156788 0.282498301,23.4776017 0.282498301,23.4776017 C0.282498301,23.0764882 0.536206965,22.7509208 0.848394578,22.7509208 Z M3.79843256,20.7939186 L3.79753289,20.7939186 C4.17539686,20.7939186 4.35803111,21.5205996 4.35803111,21.5205996 C4.35803111,21.5205996 4.82676237,25.3176874 4.82676237,27.6101499 C4.82676237,29.7919914 4.43450358,31.4225268 4.43450358,31.4225268 C4.43450358,31.8245396 4.17539686,32.1492077 3.79753289,32.1492077 C3.41876924,32.1492077 3.11108001,31.8245396 3.11108001,31.4225268 C3.11108001,31.4225268 2.76920309,29.0653105 2.76920309,27.6101499 C2.76920309,26.0479657 3.23703467,21.5205996 3.23703467,21.5205996 C3.23703467,21.5205996 3.41966892,20.7939186 3.79843256,20.7939186 Z M7.19291055,20.6167452 L7.19201088,20.6167452 C7.59686513,20.6167452 7.79929225,21.4882227 7.79929225,21.4882227 C7.79929225,21.4882227 8.28961574,25.4283084 8.28961574,27.6092505 C8.28961574,29.7910921 7.87576472,32.1635974 7.87576472,32.1635974 C7.87576472,32.5647109 7.59686513,32.8902784 7.19291055,32.8902784 C6.7880563,32.8902784 6.5091567,32.5647109 6.5091567,32.1635974 C6.5091567,32.1635974 6.09440601,29.0644111 6.09440601,27.6092505 C6.09440601,26.1558887 6.58562917,21.4882227 6.58562917,21.4882227 C6.58562917,21.4882227 6.7880563,20.6167452 7.19291055,20.6167452 Z M10.6107801,17.4860814 L10.6098804,17.4860814 C11.047123,17.4860814 11.1982686,18.3710493 11.1991683,18.3710493 C11.1991683,18.3710493 11.7974529,24.7151178 11.7974529,27.6290364 C11.7974529,29.813576 11.3530129,32.2346467 11.3530129,32.235546 C11.3530129,32.6375589 11.0480227,32.9640257 10.6107801,32.9640257 C10.1744372,32.9640257 9.86854732,32.6375589 9.86854732,32.235546 C9.86854732,32.235546 9.42410732,29.0859957 9.42410732,27.6290364 C9.42410732,25.4435974 9.98010716,18.3710493 9.98010716,18.3710493 C9.98010716,18.3710493 10.1744372,17.4860814 10.6107801,17.4860814 Z M14.0088568,16.4050535 C14.4451997,16.4050535 14.5846495,17.2252677 14.5846495,17.2252677 C14.5846495,17.2252677 15.1919309,23.9983298 15.1919309,27.6686081 C15.1919309,30.6050107 14.7492903,32.2652248 14.7492903,32.2652248 C14.7492903,32.6708351 14.4451997,33 14.0088568,33 C13.5743132,33 13.269323,32.6699358 13.269323,32.2652248 C13.269323,32.2652248 12.8266824,29.8711349 12.8266824,27.6686081 C12.8266824,25.4669807 13.4789476,17.2252677 13.4789476,17.2252677 C13.4789476,17.2252677 13.5743132,16.4050535 14.0088568,16.4050535 Z M17.4105322,17.1901927 L17.4096325,17.1901927 C17.8810628,17.1901927 17.9566356,17.9231692 17.9566356,17.9231692 C17.9566356,17.9231692 18.6898716,21.0322484 18.6898716,27.6344325 C18.6898716,30.568137 18.2148427,32.2274518 18.2148427,32.2274518 C18.2148427,32.6330621 17.8819625,32.9613276 17.4096325,32.9613276 C16.9391019,32.9613276 16.6053221,32.6321627 16.6053221,32.2274518 C16.6053221,32.2274518 16.1293934,29.8351606 16.1293934,27.6344325 C16.1293934,22.6196146 16.8635291,17.9231692 16.8635291,17.9231692 C16.8635291,17.9231692 16.9391019,17.1901927 17.4105322,17.1901927 Z M20.7924147,14.1584582 C21.230557,14.1584582 21.3754049,14.8887366 21.3754049,14.8887366 C21.3754049,14.8887366 22.0726538,17.485182 22.0726538,27.5543897 C22.0726538,30.4773019 21.4653725,32.245439 21.4653725,32.245439 C21.4653725,32.6492505 21.1585829,32.9757173 20.7204406,32.9757173 C20.2840977,32.9757173 19.9764085,32.6483512 19.9764085,32.245439 C19.9764085,32.245439 19.5265704,30.4773019 19.5265704,27.5543897 C19.5265704,20.9800857 20.219321,14.8887366 20.219321,14.8887366 C20.219321,14.8887366 20.3542725,14.1584582 20.7924147,14.1584582 Z"/>
</svg>
