<svg xmlns="http://www.w3.org/2000/svg" width="45" height="45" viewBox="0 0 45 45">
  <path fill="#FFDE00" fill-rule="evenodd" d="M0,35 L0,32.5395152 L8.20439286,32.5395152 L8.20439286,35 L0,35 Z M0,31.7970435 L0,29.3201068 L8.20439286,29.3201068 L8.20439286,31.7970435 L0,31.7970435 Z M0,28.5776351 L0,26.1006983 L8.20439286,26.1006983 L8.20439286,28.5776351 L0,28.5776351 Z M0,25.3576173 L0,22.8812898 L8.20439286,22.8812898 L8.20439286,25.3576173 L0,25.3576173 Z M0,22.1369901 L0,19.6609674 L8.20439286,19.6609674 L8.20439286,22.1369901 L0,22.1369901 Z M9.19890179,35 L9.19890179,32.5395152 L17.4032946,32.5395152 L17.4032946,35 L9.19890179,35 Z M9.19890179,31.7970435 L9.19890179,29.3201068 L17.4032946,29.3201068 L17.4032946,31.7970435 L9.19890179,31.7970435 Z M9.19890179,28.5776351 L9.19890179,26.1006983 L17.4032946,26.1006983 L17.4032946,28.5776351 L9.19890179,28.5776351 Z M18.3974978,35 L18.3974978,32.5395152 L26.6018906,32.5395152 L26.6018906,35 L18.3974978,35 Z M18.3974978,31.7970435 L18.3974978,29.3201068 L26.6018906,29.3201068 L26.6018906,31.7970435 L18.3974978,31.7970435 Z M18.3974978,28.5776351 L18.3974978,26.1006983 L26.6018906,26.1006983 L26.6018906,28.5776351 L18.3974978,28.5776351 Z M18.3974978,25.3576173 L18.3974978,22.8812898 L26.6018906,22.8812898 L26.6018906,25.3576173 L18.3974978,25.3576173 Z M18.3974978,22.1369901 L18.3974978,19.6609674 L26.6018906,19.6609674 L26.6018906,22.1369901 L18.3974978,22.1369901 Z M18.3974978,18.9175817 L18.3974978,16.4406449 L26.6018906,16.4406449 L26.6018906,18.9175817 L18.3974978,18.9175817 Z M18.3974978,15.6984779 L18.3974978,13.2212365 L26.6018906,13.2212365 L26.6018906,15.6984779 L18.3974978,15.6984779 Z M27.5963995,35 L27.5963995,32.5395152 L35.8007924,32.5395152 L35.8007924,35 L27.5963995,35 Z M27.5963995,31.7970435 L27.5963995,29.3201068 L35.8007924,29.3201068 L35.8007924,31.7970435 L27.5963995,31.7970435 Z M27.5963995,28.5776351 L27.5963995,26.1006983 L35.8007924,26.1006983 L35.8007924,28.5776351 L27.5963995,28.5776351 Z M27.5963995,25.3576173 L27.5963995,22.8812898 L35.8007924,22.8812898 L35.8007924,25.3576173 L27.5963995,25.3576173 Z M27.5963995,22.1369901 L27.5963995,19.6609674 L35.8007924,19.6609674 L35.8007924,22.1369901 L27.5963995,22.1369901 Z M36.7949955,35 L36.7949955,32.5395152 L45,32.5395152 L45,35 L36.7949955,35 Z M36.7949955,31.7970435 L36.7949955,29.3201068 L45,29.3201068 L45,31.7970435 L36.7949955,31.7970435 Z M36.7949955,28.5770257 L36.7949955,26.0997843 L45,26.0997843 L45,28.5770257 L36.7949955,28.5770257 Z M36.7949955,25.3576173 L36.7949955,22.8803758 L45,22.8803758 L45,25.3576173 L36.7949955,25.3576173 Z M36.7949955,22.1369901 L36.7949955,19.6600534 L45,19.6600534 L45,22.1369901 L36.7949955,22.1369901 Z M36.7949955,18.9169723 L36.7949955,16.4406449 L45,16.4406449 L45,18.9169723 L36.7949955,18.9169723 Z M36.7949955,15.6963452 L36.7949955,13.2203225 L45,13.2203225 L45,15.6963452 L36.7949955,15.6963452 Z M36.7949955,12.4772414 L36.7949955,10 L45,10 L45,12.4772414 L36.7949955,12.4772414 Z"/>
</svg>
