<svg xmlns="http://www.w3.org/2000/svg" width="45" height="45" viewBox="0 0 45 45">
  <path fill="#FFDE00" d="M35.3571429,0 C40.6607143,0 45,4.33928571 45,9.64285714 L45,35.3571429 C45,40.6607143 40.6607143,45 35.3571429,45 L9.64285714,45 C4.33928571,45 0,40.6607143 0,35.3571429 L0,9.64285714 C0,4.33928571 4.33928571,0 9.64285714,0 L35.3571429,0 Z M32.0785714,30.4553571 C32.1910714,29.9571429 32.1910714,29.5232143 32.2071429,29.025 L32.2071429,10.6232143 C32.2071429,9.94821429 31.8214286,9.54642857 31.1464286,9.59464286 C31.05,9.59464286 30.15,9.75535714 30.0375,9.77142857 L17.5178571,12.1178571 C17.1803571,12.1821429 16.9232143,12.2785714 16.7303571,12.4392857 C16.4892857,12.6321429 16.3607143,12.8892857 16.3125,13.1946429 C16.2964286,13.2589286 16.2803571,13.3875 16.2803571,13.5803571 L16.2803571,28.0767857 C16.2803571,28.4142857 16.2482143,28.7517857 16.0071429,29.025 C15.75,29.3142857 15.4446429,29.3946429 15.0910714,29.4589286 C14.8178571,29.5071429 14.5446429,29.5553571 14.2714286,29.6035714 C13.2428571,29.7964286 12.5678571,29.925 11.9571429,30.15 C11.3785714,30.3589286 10.9446429,30.6321429 10.5910714,30.9696429 C9.9,31.6446429 9.62678571,32.5446429 9.72321429,33.3964286 C9.81964286,34.1196429 10.1571429,34.8107143 10.7678571,35.325 C11.1857143,35.6785714 11.7,35.9357143 12.2946429,36.0482143 C12.9053571,36.1607143 13.5803571,36.1125 14.5446429,35.9357143 C15.0589286,35.8392857 15.5410714,35.6946429 16.0071429,35.4375 C16.4732143,35.1964286 16.8589286,34.8589286 17.1642857,34.4571429 C17.4696429,34.0553571 17.6625,33.6053571 17.775,33.1232143 C17.8875,32.625 17.9196429,32.1910714 17.9196429,31.6928571 L17.9196429,19.0928571 C17.9196429,18.4178571 18.1125,18.2410714 18.7071429,18.1125 C18.7071429,18.1125 29.1053571,16.1678571 29.5875,16.0875 C30.2625,15.975 30.5839286,16.1517857 30.5839286,16.8107143 L30.5839286,25.4089286 C30.5839286,25.7464286 30.5839286,26.0839286 30.3267857,26.3732143 C30.0696429,26.6625 29.7642857,26.7428571 29.4107143,26.8071429 C29.1375,26.8553571 28.8642857,26.9035714 28.5910714,26.9517857 C27.5625,27.1446429 26.8875,27.2732143 26.2767857,27.4982143 C25.6982143,27.7071429 25.2642857,27.9803571 24.9107143,28.3178571 C24.2196429,28.9928571 23.9142857,29.8928571 24.0107143,30.7446429 C24.0910714,31.4678571 24.4607143,32.1589286 25.0714286,32.6732143 C25.4892857,33.0107143 26.0035714,33.2678571 26.5982143,33.3803571 C27.2089286,33.4928571 27.8839286,33.4446429 28.8482143,33.2678571 C29.3625,33.1714286 29.8446429,33.0267857 30.3107143,32.7696429 C30.7767857,32.5285714 31.1625,32.1910714 31.4678571,31.7892857 C31.7732143,31.3875 31.9660714,30.9375 32.0785714,30.4553571 Z"/>
</svg>
