<svg xmlns="http://www.w3.org/2000/svg" width="50" height="50" viewBox="0 0 50 50">
  <path fill="#FFDE00" fill-rule="evenodd" d="M0,19.6521739 C0,19.6521739 3.48837209,20.7391304 3.48837209,20.7391304 C4.44676599,12.7193763 9.17684866,5.68290379 22.0930233,0 C25.9702803,5.22460938 41.2503974,2.0010721 46.5116279,20.7391304 C46.5116279,20.7391304 50,19.6521739 50,19.6521739 C50,23.5531379 47.5438861,35.8319126 47.5116279,35.9565217 C38.3834633,44.4502998 25,50 25,50 C25,50 11.2287664,45.8160399 2.48837209,35.9565217 C1.05191679,31.3462445 0.40084484,24.3099524 0,19.6521739 Z M25,29.97566 C22.0185352,29.97566 16.0556056,23.4916539 7.11121123,24.0319878 C6.51822331,27.7414191 8.3236274,32.1083084 11.8815549,34.2983308 C13.660247,35.3931748 17.2481915,35.3789985 21.4222422,37 C18.4407775,34.2983308 14.9324256,34.5220056 13.1534618,32.8794888 C11.3744981,31.2369721 8.90009011,28.8949924 9.49638306,26.1933231 C15.4593127,25.6529893 22.0185352,30.5159939 25,30.5159939 C27.9814648,30.5159939 35.7332733,25.6529893 40.5036169,26.1933231 C40.5036169,28.7788937 38.6255019,31.2369721 36.8465382,32.8794888 C35.0675744,34.5220056 31.5592225,34.2983308 28.5777578,37 C32.7518085,35.3789985 36.339753,35.3931748 38.1184451,34.2983308 C41.6763726,32.1083084 43.4817767,27.8645269 42.8887888,24.0319878 C33.9443944,23.4916539 27.9814648,29.97566 25,29.97566 Z M13.9872067,28.9725546 C16.987785,29.5692747 18.7900864,30.1562228 20.0127933,33.0274454 C17.6064675,31.8633212 14.6205471,32.9834714 13.9872067,28.9725546 Z M36.0127933,28.9725546 C33.012215,29.5692747 31.2099136,30.1562228 29.9872067,33.0274454 C32.3935325,31.8633212 35.3794529,32.9834714 36.0127933,28.9725546 Z"/>
</svg>
